<svg width="89" height="90" viewBox="0 0 89 90" fill="none" xmlns="http://www.w3.org/2000/svg">
<g clip-path="url(#clip0_1_541)">
<path d="M44.4927 68.4181C31.1969 68.4181 20.309 57.4079 20.309 44.0157C20.309 30.6235 31.1969 20.1426 44.4927 20.1426C57.7884 20.1426 68.6763 30.6764 68.6763 44.0686C68.6763 57.4608 57.7884 68.4181 44.4927 68.4181ZM44.4927 23.5303C32.9243 23.5303 23.7115 32.3703 23.7115 44.0157C23.7115 55.6611 32.9243 64.554 44.4927 64.554C56.061 64.554 65.2738 55.714 65.2738 44.0157C65.2738 32.3173 56.061 23.5303 44.4927 23.5303Z" fill="#07C419"/>
<path d="M45.906 3.94482V11.779H43.027V3.94482H45.906Z" fill="#07C419"/>
<path d="M26.9045 17.0721L23.0833 10.4554L25.8053 8.81445L29.6265 15.537L26.9045 17.0721Z" fill="#07C419"/>
<path d="M15.5979 29.6702L9.00238 25.859L10.5727 23.1064L17.1683 26.9177L15.5979 29.6702Z" fill="#07C419"/>
<path d="M12.1431 43.0625V45.9739H4.39594V43.0625H12.1431Z" fill="#07C419"/>
<path d="M10.5727 66.3535L9.00238 63.601L15.5979 59.7368L17.1683 62.4894L10.5727 66.3535Z" fill="#07C419"/>
<path d="M78.4126 66.3535L71.817 62.4894L73.3874 59.7368L79.9829 63.601L78.4126 66.3535Z" fill="#07C419"/>
<path d="M84.6417 43.0625V45.9739H76.8945V43.0625H84.6417Z" fill="#07C419"/>
<path d="M73.3874 29.6702L71.817 26.9177L78.4126 23.1064L79.9829 25.859L73.3874 29.6702Z" fill="#07C419"/>
<path d="M62.0808 17.0721L59.4111 15.537L63.2324 8.81445L65.902 10.4554L62.0808 17.0721Z" fill="#07C419"/>
<path d="M34.2382 0.0571289L37.5909 12.6845L34.558 13.5081L31.2053 0.880248L34.2382 0.0571289Z" fill="#07C419"/>
<path d="M20.4137 22.6305L11.3055 13.42L13.5041 11.1968L22.6645 20.4072L20.4137 22.6305Z" fill="#07C419"/>
<path d="M1.05422 31.292L13.5439 34.6707L12.7325 37.7388L0.242859 34.36L1.05422 31.292Z" fill="#07C419"/>
<path d="M12.7697 51.6313L13.5842 54.6989L1.09663 58.0893L0.282654 55.0218L12.7697 51.6313Z" fill="#07C419"/>
<path d="M76.2486 51.6592L88.7388 55.0385L87.9274 58.1065L75.4373 54.7277L76.2486 51.6592Z" fill="#07C419"/>
<path d="M87.9426 31.3062L88.7571 34.3737L76.2701 37.7635L75.4556 34.696L87.9426 31.3062Z" fill="#07C419"/>
<path d="M68.5716 22.6305L66.3731 20.4072L75.4812 11.1968L77.7321 13.42L68.5716 22.6305Z" fill="#07C419"/>
<path d="M54.7628 0L57.7968 0.820472L54.4556 13.451L51.4216 12.6305L54.7628 0Z" fill="#07C419"/>
<path d="M57.5267 47.9327H42.5558V29.8823H45.4872V45.0214H57.5267V47.9327Z" fill="#07C419"/>
<path d="M45.906 78.2637V85.6215H43.027V78.2637H45.906Z" fill="#07C419"/>
<path d="M63.2324 81.2276L59.4111 74.505L62.0808 72.917L65.902 79.5866L63.2324 81.2276Z" fill="#07C419"/>
<path d="M25.8053 81.2276L23.0833 79.5866L26.9045 72.917L29.6265 74.505L25.8053 81.2276Z" fill="#07C419"/>
<path d="M54.431 76.5356L57.7837 89.163L54.7503 89.9866L51.3976 77.3593L54.431 76.5356Z" fill="#07C419"/>
<path d="M75.4812 78.8458L66.3731 69.6353L68.5716 67.4121L77.7321 76.6226L75.4812 78.8458Z" fill="#07C419"/>
<path d="M13.5041 78.8458L11.3055 76.6226L20.4137 67.4121L22.6645 69.6353L13.5041 78.8458Z" fill="#07C419"/>
<path d="M34.5444 76.5483L37.5784 77.3693L34.2371 89.9999L31.2032 89.1794L34.5444 76.5489V76.5483Z" fill="#07C419"/>
</g>
<defs>
<clipPath id="clip0_1_541">
<rect width="89" height="90" fill="white"/>
</clipPath>
</defs>
</svg>
